<svg width="100%" height="100%" viewBox="0 0 100 100" version="1.1"
    xmlns="http://www.w3.org/2000/svg" xmlns:xlink="http://www.w3.org/1999/xlink"
    xml:space="preserve" xmlns:serif="http://www.serif.com/"
    style="fill-rule:evenodd;clip-rule:evenodd;stroke-linecap:round;stroke-linejoin:round;"><path d="M86.729,40.818c-0,17.809 -27.186,47.588 -34.021,54.17c-0.897,0.864 -2.604,0.922 -2.646,0.923c-1.006,0.013 -2.001,-0.306 -2.821,-0.923c-8.54,-7.373 -33.97,-31.247 -33.97,-54.17c0,-20.149 16.58,-36.729 36.729,-36.729c20.149,0 36.729,16.58 36.729,36.729Zm-36.729,-13.773c7.602,-0 13.773,6.171 13.773,13.773c0,7.601 -6.171,13.773 -13.773,13.773c-7.602,0 -13.773,-6.172 -13.773,-13.773c-0,-7.602 6.171,-13.773 13.773,-13.773Z" style="fill:#5ea500;"/><g><path d="M91.667,91.667l-9.352,-9.352" style="fill:none;fill-rule:nonzero;stroke:#1a2f05;stroke-width:9.95px;"/><circle cx="71.77" cy="71.77" r="14.923" style="fill:none;stroke:#1a2f05;stroke-width:9.95px;"/></g></svg>